<?xml version="1.0" encoding="utf-8"?>
<!-- Generator: Adobe Illustrator 17.0.0, SVG Export Plug-In . SVG Version: 6.00 Build 0)  -->
<!DOCTYPE svg PUBLIC "-//W3C//DTD SVG 1.1//EN" "http://www.w3.org/Graphics/SVG/1.1/DTD/svg11.dtd">
<svg version="1.1" id="Livello_1" xmlns="http://www.w3.org/2000/svg" xmlns:xlink="http://www.w3.org/1999/xlink" x="0px" y="0px"
	 width="260.317px" height="81.425px" viewBox="0 0 260.317 81.425" enable-background="new 0 0 260.317 81.425"
	 xml:space="preserve">
<g>
	<path fill="#FFFFFF" d="M147.546,39.176c-0.108-0.562-0.764-1.408-1.548-1.711c0.314,1.573,0.49,3.341,0.49,5.211
		c0,6.546-2.157,11.852-4.818,11.852c-1.572,0-2.967-1.852-3.846-4.716c-0.321-0.533-2.587-1.53-7.535-1.53
		c-0.024,0-0.048,0-0.073,0c-0.024,0-0.048,0-0.073,0c-4.948,0-7.214,0.997-7.535,1.53c-0.879,2.864-2.275,4.716-3.846,4.716
		c-2.661,0-4.818-5.307-4.818-11.852c0-1.87,0.177-3.638,0.49-5.211c-0.784,0.303-1.439,1.148-1.548,1.711
		c-0.736,3.818-0.313,8.787-0.008,10.078c0.411,1.735-0.119,3.665,0.098,5.445c-0.026,0.39-0.038,0.884-0.038,1.505
		c0,3.892,1.354,7.296,3.377,9.16c2.418,3.924,7.718,6.668,13.9,6.743c6.183-0.075,11.483-2.819,13.9-6.743
		c2.023-1.865,3.377-5.269,3.377-9.16c0-0.621-0.012-1.115-0.038-1.505c0.217-1.78-0.313-3.71,0.098-5.445
		C147.859,47.963,148.281,42.994,147.546,39.176z M130.37,60.373c-0.052,0-0.103-0.001-0.154-0.002
		c-0.051,0-0.102,0.002-0.154,0.002c-4.756,0-8.611-1.535-8.611-3.429s3.855-3.429,8.611-3.429c0.052,0,0.103,0.001,0.154,0.002
		c0.051,0,0.102-0.002,0.154-0.002c4.756,0,8.611,1.535,8.611,3.429S135.125,60.373,130.37,60.373z M148.38,31.085
		c0.48,0.264,0.755,2.176-2.236,0.701c-0.039-0.019-0.087,0.004-0.131,0.006c-3.082-0.81-8.98-1.358-15.753-1.358
		c-8.921,0-16.023,1.432-17.77,2.198c-0.655-0.171-0.625-3.542-0.718-4.08c-0.086-0.171-0.134-0.357-0.134-0.553
		c0-0.816,0.82-1.478,1.833-1.478c0.025,0,0.049,0.002,0.074,0.003c1.223-2.284,3.044-4.447,4.765-6.631
		c0.688-0.416,0.911-0.676,1.526-1.263c0.49-0.342,1.877-1.146,2.045-1.609c0.327-0.208,0.573-0.434,0.662-0.69
		c0.342-0.405,0.453-0.857,0.491-1.323c0.371-0.571,0.656-1.159,1.055-1.725c1.484-3.36,4.824-4.166,7.943-3.926
		c2.217,0.171,2.942,1.096,4.201,3.147c0.049,0.068,0.096,0.14,0.138,0.217c0.01,0.019,0.016,0.04,0.026,0.059
		c0.673,1.183,0.631,1.069,1.133,2.389c0.086,0.43,0.361,0.677,0.571,0.926c1.438,0.571,6.613,4.64,7.302,8.075
		c0.122,0.288,0.253,0.601,0.376,0.881c0.085,0.395,0.193,0.865,0.315,1.241c0.067-0.006,0.135-0.01,0.205-0.01
		c1.012,0,1.833,0.662,1.833,1.478c0,0.127-0.022,0.25-0.06,0.368c-0.004,0.225-0.041,0.443-0.054,0.666
		c-0.074,0.201-0.161,0.48-0.193,0.755c-0.03,0.129-0.048,0.27-0.048,0.418C147.776,30.563,148.043,31.043,148.38,31.085z"/>
</g>
</svg>
